<svg xmlns="http://www.w3.org/2000/svg" width="64" height="33" viewBox="0 0 64 33">
    <g fill="none" fill-rule="evenodd">
        <path fill="#FFF" d="M-492-773h595V69h-595z"/>
        <g fill="#997AFF">
            <path d="M62.625 3.738L58.777.455c-.668-.57-1.68-.512-2.26.129a1.512 1.512 0 0 0-.159 1.825l-.01.012.01.009V2.534c0 .027-.002.055-.004.082 0 .012 0 .024-.002.036a2.6 2.6 0 0 1-.007.081l-.004.036a2.497 2.497 0 0 1-.011.082l-.005.035-.016.083-.006.033a2.48 2.48 0 0 1-.02.084l-.007.03a2.422 2.422 0 0 1-.025.087l-.008.028-.03.09-.008.023a2.469 2.469 0 0 1-.037.093l-.007.018a2.515 2.515 0 0 1-.044.097l-.005.013a2.473 2.473 0 0 1-.052.102l-.003.006-.06.106c-.086.141-.185.276-.3.403-.46.507-1.08.797-1.726.863l-.011.012c-.967-.471-2.169-.28-2.909.538a.833.833 0 0 0 .087 1.199l2.612 2.229-3.322 3.667-.54 1.343.007-.004-.006.006 1.304-.692 3.323-3.667 2.57 2.193a.895.895 0 0 0 1.236-.07c.74-.817.782-1.999.177-2.869a2.558 2.558 0 0 1 .246-1.155c.105-.219.243-.427.415-.618a2.647 2.647 0 0 1 1.133-.736c.193-.064.392-.106.594-.127a1.63 1.63 0 0 0 1.896-.364c.58-.64.51-1.622-.158-2.192"/>
            <text font-family="LucidaGrande, Lucida Grande" font-size="13.953" transform="translate(-1 -1)">
                <tspan x=".382" y="30.08">MoneyPin</tspan>
            </text>
        </g>
    </g>
</svg>
